<?xml version="1.0" encoding="UTF-8"?><svg id="Layer_1" xmlns="http://www.w3.org/2000/svg" xmlns:xlink="http://www.w3.org/1999/xlink" viewBox="0 0 341.3629 359.039"><defs><style>.cls-1{fill:none;}.cls-2{clip-path:url(#clippath);}.cls-3{fill:#222221;}</style><clipPath id="clippath"><rect class="cls-1" x="-52.224" y="-230.567" width="595" height="842"/></clipPath></defs><g class="cls-2"><path class="cls-3" d="M201.204,271.41c.843,.092,1.68,.295,2.311,.911,1.365,4.61,5.002,8.169,6.857,12.595,3.056,5.571,4.519,11.793,5.696,17.988,1.767,5.986,.949,12.311,1.951,18.379-.799-.039-1.579-.179-2.334-.426,.122-2.77-.203-5.535-.077-8.305,.266-5.26-1.4-10.331-2.485-15.411-1.743-8.916-6.291-17.121-12.079-24.041,.043-.567,.097-1.129,.16-1.69m-113.239-26.923c.323-.179,.968-.532,1.287-.712,1.642,3.967-3.143,6.911-3.099,10.791-.688-.311-1.41-.538-2.083-.878,1.7-2.895,3.027-5.966,3.895-9.201m-47.477-3.148c2.159-.232,4.334-.218,6.499-.373,.402,.33,.804,.663,1.211,1.003-.422,1.467-1.298,2.746-1.817,4.184,1.463,1.269,3.008,2.552,5.008,1.516,.02,.344,.059,1.041,.077,1.386-1.554,.73-3.287,1.083-4.809,.067-.609,2.068-2.575,3.995-4.827,2.8-.03-.572-.059-1.139-.079-1.705,.258-.136,.78-.412,1.037-.553,.189,.059,.557,.17,.741,.228,.518-.795,1.129-1.525,1.831-2.155-.078-.291-.155-.571-.228-.852-1.69-1.497-4.838-1.11-5.526-3.55,.305-.664,.601-1.328,.882-1.996m-14.394-3.913c1.041-1.482,2.005-3.017,3.032-4.514,.629,.358,1.269,.703,1.922,1.027-.285,.475-.566,.954-.852,1.439,.529,.43,1.817,.615,1.453,1.554-1.739,.934-3.894,2.373-5.555,.494m31.266-5.725c.276,.049,.834,.156,1.11,.204,.116,.615,.233,1.23,.343,1.849,.451-.4,.901-.803,1.352-1.205,.872,.063,2.692-.014,2.32,1.356-1.734,1.031-3.69,3.588-5.855,2.237-1.434-.935-.553-2.619-.243-3.898,.243-.136,.732-.407,.973-.543m101.371-42.565c.038-1.055,.76-2.029,1.82-2.232-.949,5.786-.256,12.151,3.042,17.124-.44,.015-1.317,.054-1.758,.072-2.814-4.474-2.853-9.864-3.104-14.964m4.325-6.398c-.102-1.066,1.036-1.472,1.676-2.087-1.386,6.131,2.023,11.884,4.518,17.193-.561-.281-1.405-.276-1.715-.91-2.523-4.287-4.645-9.135-4.479-14.196m5.124-11.584c.179,.12,.537,.372,.716,.499-2.165,7.52,2.654,14.432,5.7,20.892-1.095-.193-1.661-1.123-2.175-1.995-2.9-4.035-4.484-8.882-5.443-13.721-.213-1.936-.707-4.397,1.202-5.675m1.423-6.742c.325-.523,.668-1.032,1.042-1.526,.145,.18,.435,.534,.581,.713,.251,6.412,2.072,12.688,4.819,18.461-.393,.02-1.178,.059-1.57,.078-2.32-5.661-4.552-11.512-4.872-17.726m-129.237-2.426c.839-1.008,1.971-2.102,3.217-.969-.156,.794-.305,1.584-.456,2.383-.237-.349-.47-.693-.708-1.036-2.145,5.802-2.764,12.03-4.628,17.929-.839,3.54-2.384,6.988-2.369,10.678-.456,.335-.921,.668-1.375,1.003-.355-.354-.708-.707-1.056-1.06,1.801-5.72,3.278-11.963,1.893-17.929-2.6,6.431-3.22,13.555-3.342,20.447-.231,1.603,.795,2.814,1.957,3.738-1.714,1.342-3.089-.74-3.288-2.333-.392-4.03,.149-8.084,.847-12.055,.707-3.739,.921-7.642,2.5-11.154,.353-.968,1.39-1.099,2.275-.983,.64,3.269-.319,6.611,.33,9.895,2.291-5.948,3.21-12.292,4.203-18.554m131.262-10.055c.431,.296,.857,.601,1.273,.926-.552,6.315,1.676,12.78,5.972,17.43,.266,1.007-1.206,1.206-1.549,.387-4.456-4.964-6.864-12.16-5.696-18.743m-35.602-11.201c2.505-.025,4.713-1.811,7.221-1.264,.301,2.387-1.54,4.291-1.806,6.615-.76-.106-1.492-.329-2.175-.668-.256-2.184-3.473-2.252-3.24-4.683m-14.785-9.933c2.232-.054,2.377,1.666,1.269,3.235,1.08-.732,2.252-1.371,3.613-1.231-.165,2.689-3.439,4.563-5.855,5.023-.389-.392-.771-.78-1.159-1.162,.635-1.981,1.464-3.894,2.132-5.865m29.475-.451c.087-1.758,.793-4.145,2.856-4.383,.543,1.056,.494,2.194,.146,3.303,1.477-1.022,2.582-2.567,4.31-3.206,1.245,2.058-1.191,3.671-2.697,4.698-1.298,1.133-3.788,1.434-4.615-.412m-14.864-15.517c.353,.32,.708,.634,1.066,.959-1.443,1.55-2.01,3.875-3.928,4.945,.45-2.174,1.385-4.233,2.862-5.904m-4.155-1.458c1.549-1.724,2.435-4.155,4.567-5.269-.561,4.136-5.124,6.325-6.524,10.224-.499,.135-.993,.271-1.487,.402,.514-2.122,2.398-3.502,3.444-5.357m26.99-14.621c-1.972,1.254-3.71,2.828-5.207,4.616-6.503-.412-13.099-1.73-19.589-.272,.412,.465,.832,.926,1.264,1.376-2.814,2.063-4.524,5.332-7.449,7.172,1.602-2.954,3.948-5.589,6.17-8.092-6.49-.674-12.907,1.627-19.207,2.992-2.083,.805-4.379,.311-6.365-.522-4.126-2.456-5.763-7.333-9.521-10.205-3.167,8.761-2.93,18.336-1.952,27.456,1.352,9.686,7.555,17.812,14.99,23.76,1.686,.852,3.618,1.215,5.104,2.455,2.814-.635,5.56-1.492,8.306-2.349,1.259-.247,3.298-.857,3.652,.916-3.051,1.302-6.373,1.733-9.56,2.6,3.105,1.976,5.467-2,8.597-1.52,.595,.537,.518,1.351,.59,2.077-1.404-.005-2.785,.233-4.029,.896,7.022,2.14,14.456,1.395,21.653,.872,7.279-.683,13.57-4.65,19.581-8.48,2.387-2.451,4.949-4.833,6.596-7.88-3.502,1.235-6.737,3.099-9.851,5.1-.916,.683-1.628-.436-2.068-1.1,4.029-2.707,8.799-3.996,12.999-6.368,.785-1.376,1.244-2.911,1.868-4.359-6.45,3.433-13.264,6.48-18.852,11.26-.588-.019-1.174-.044-1.76-.063-.174-.47-.343-.94-.507-1.409,7.128-3.933,14.16-8.132,21.648-11.386,2.949-6.48,3.371-14.011,1.303-20.806-2.228-5.637-2.915-11.788-2.577-17.813-6.107,1.231-10.931,5.511-15.827,9.076m13.846-10.833c1.618-.272,3.42-1.139,4.906-.03-1.724,5.812-.31,11.865,1.25,17.532,2.499,6.742,2.683,14.374,.378,21.198,5.559-2.044,11.013-4.432,16.597-6.325,1.012,2.131-1.715,2.402-3.158,2.775-4.881,1.714-9.841,3.337-14.491,5.613-.197,1.502-.691,2.94-1.292,4.325,7.38-2.785,14.989-5.337,22.879-6.006,.115,.267,.343,.805,.459,1.071-1.075,.988-2.48,.92-3.835,.877-6.999,1.239-13.983,3.118-20.351,6.305-3.002,5.589-7.042,11.086-13.013,13.726-9.362,6.78-21.572,7.395-32.71,6.63-2.058,3.927-2.218,8.407-3.027,12.678-.61,7.619-.571,15.47,1.801,22.807,3.667,6.296,6.785,12.907,9.062,19.832,.368,3.017,2.029,5.981,1.244,9.062-.599,1.748-2.672,.551-2.344-.946-.266-6.402-3.158-12.19-5.438-18.03-2.068-4.494-5.183-8.664-5.598-13.735-1.579-5.555-1.391-11.381-1.318-17.096,.558-3.487,1.845-6.887,1.574-10.475,.732-1.332,1.114-2.81,1.428-4.287-2.213-.324-4.31-1.447-6.552-1.447-2.466,.973-4.94,2.034-7.124,3.555-3.317,1.961-7.018,3.317-9.973,5.854,.117,.509,.233,1.018,.345,1.531-1.554,.281-2.408-.949-2.572-2.325,5.298-4.025,11.701-6.165,17.3-9.681-3.511-2.058-7.59-.286-11.033,1.094-5.52,1.637-10.873,3.933-15.696,7.076-.974,.828-3.434,.693-3.032-1.007,8.064-3.39,16.079-7.463,24.704-9.488-7.211-4.455-13.526-10.92-16.737-18.868-3.967-7.502-3.22-16.301-2.892-24.492,.064-4.004,2.378-7.729,2.001-11.724,.842-.064,1.68,.0049,2.508,.193-1.215-1.036-2.456-2.038-3.738-2.983,.388-.77,1.118-1.162,1.873-1.482,1.353,3.138,4.684,4.383,6.902,6.727-.048,.189-.15,.566-.204,.756,2.165,1.675,3.449,4.421,6.108,5.433,3.429,1.482,7.128-.033,10.529-.818,5.782-1.739,11.875-1.7,17.802-2.615,4.814-.731,9.638,.552,14.442,.073,1.981-1.376,3.813-2.969,5.802-4.34,4.766-2.804,8.791-6.979,14.234-8.523m-1.085,265.635c2.916,1.797,6.373,1.696,9.667,1.492,.16,.325,.48,.969,.639,1.293,3.724-.615,7.425-1.404,11.028-2.557-1.763-.092-3.521-.014-5.279-.024-.165-.252-.494-.76-.663-1.012-5.129-.024-10.409-1.032-15.392,.808m7.304-4.479c4.901,2.935,10.94,1.807,16.161,.338-.227-.29-.45-.576-.678-.857-5.158,.04-10.388-.484-15.483,.519m14.994,1.622c-1.008,.315-2.436,.238-2.896,1.395,1.694-.165,3.37-.552,4.964-1.162,.412,.45,.809,.915,1.221,1.385,3.283-1.453,7.322-2.296,9.249-5.633-4.028,1.782-8.305,2.848-12.538,4.015m-183.856-7.434c-.485,2.227,2.237-.532,0,0m173.691-2.073c1.708,.998,3.598,1.889,5.618,1.249-1.686-1.065-3.764-.706-5.618-1.249m-167.875-2.383c-1.879,1.037,1.578,.993,0,0m174.586-1.55c3.614,1.952,7.736,2.267,11.696,2.935,1.304,.213,.911,1.696,.553,2.544-4.62-1.594-9.551-2.229-14.404-2.567,3.826,2.004,8.166,2.469,12.389,2.968,.02,.62,.034,1.245,.044,1.869-5.487-.407-10.951-1.404-16.457-.581,3.428,1.909,7.468,2.224,11.318,2.142,0,.89-.043,1.781-.126,2.672,3.599-1.579,7.502-2.339,10.815-4.528,2.32-.296,4.915-3.933,2.527-5.55-.105,.343-.318,1.031-.425,1.376-6.078,.139-12.001-2.03-17.93-3.28m-184.993,1.09c.435,.456,.847,.944,1.176,1.487,.436-1.423,1.346-2.591,2.266-3.724-1.264,.552-2.436,1.293-3.442,2.237m-2.152-2.426c-.232,2.3,2.644-1.032,0,0m190.308-3.947c.087,1.574,1.472-.736,0,0m-185.614,2.877c1.545-.737,3.08-1.646,4.048-3.105-1.554,.736-2.789,1.962-4.048,3.105m-3.028-.911c3.246-.958,5.295-4.097,8.443-5.424-3.197,1.124-5.973,3.148-8.443,5.424m175.702-7.908c2.169,2.344,5.385,3.143,7.875,5.06,1.612,1.08,4.33,1.419,4.174,3.923-4.15-.876-7.55-3.932-11.614-5.182,1.705,1.448,4.955,1.608,5.255,4.243-7.443-1.662-14.166-5.889-21.649-7.55,2.636,2.426,5.618,4.547,8.936,5.927,4.872-.911,8.96,2.548,12.35,5.55,1.294,.64,2.751,.819,4.175,.935-1.841-.324-4.911-2.13-2.876-4.131,5.288,1.676,10.659,2.916,16.198,3.487l-.038-.416c-3.056,.125-5.588-1.933-8.073-3.439-1.691-1.428-4.47-1.815-5.124-4.213-2.925-1.919-6.257-3.188-9.589-4.194m3.414-.282c8.505,3.507,16.321,8.722,25.005,11.852-2.655-3.885-6.926-6.263-11.038-8.336-4.267-2.261-9.037-4.222-13.967-3.516m-26.414,1.008c2.722,.824,5.463,1.636,8.243,2.281-1.386-1.138-2.824-2.219-3.986-3.589-1.375,.572-2.823,.915-4.257,1.308m-17.861-2.203c2.325,1.699,4.891,3.061,7.676,3.836,.852,.077,1.225,.832,1.656,1.462-.474,.325-.948,.653-1.423,.983,2.029,.882,5.249,1.061,5.879,3.541-.731,.11-1.457,.217-2.189,.313-.169,.286-.514,.858-.688,1.139-4.174,.325-8.334-.697-12.49-.198,3.555,1.007,7.158,1.995,10.776,2.614,.194,.611,.349,1.236,.532,1.865-5.104,.359-10.238-.373-15.308,.166,3.729,1.524,7.855,2.096,11.855,2.314-.005,.596,.586,1.371-.144,1.753-6.447,.112-13.149-.924-19.422,.93,5.017,.813,10.112,.46,15.14,1.128,.218,.717,.925,1.536-.116,1.938-4.485-.988-9.076-.96-13.644-.96,3.212,.688,6.505,.388,9.76,.544,.736,.416,.62,1.244,.663,1.971-6.513-.809-13.085-.829-19.629-.437,14.665,5.715,30.535,5.914,46.018,7.101,1.018-2.301,3.773-1.671,5.769-1.449-.576-.992-.692-2.106-.233-3.167,2.644-.567,5.338-.732,8.035-.857-.78-.886-.906-2.015-.818-3.148,2.451-1.551,5.409-.906,8.141-1.066-.77-.344-1.546-.659-2.321-.964-.658-1.128-.449-2.314,.355-3.297-2.776-1.478-5.681-2.699-8.583-3.894-1.075-.238-.929-2.65,.363-1.871,3.241,1.579,6.52,3.624,10.308,3.023-.97-1.235-2.161-2.261-3.406-3.211-1.313,1.496-3.022,.538-4.432-.232-6.803-3.967-14.214-7.918-22.258-7.691-.131-.276-.392-.818-.523-1.09-3.715,1.69-8.645,1.201-11.26-2.17-1.346-.325-2.679-.683-4.039-.919m-1.811,.198c-.17,.179-.509,.532-.679,.711,1.168,.427,2.34,.859,3.54,1.197-.934-.668-1.883-1.307-2.861-1.908m26.327,.16c5.467,1.666,10.669,4.285,16.176,5.864-3.831-2.077-7.518-4.454-11.522-6.232-1.497-.839-3.144,.048-4.654,.368m7.201-1.197c3.704,1.894,7.622,3.322,11.236,5.415-1.851-1.323-3.758-2.567-5.739-3.681-.01-.572-.015-1.138-.015-1.699-1.825,.096-3.656,.072-5.482-.035m-79.479-4.367c4.736,2.289,10.18,3.22,14.868,5.797,.252-.959,.494-1.919,.765-2.863-1.468-.315-2.93-.635-4.378-1.012-.213,.344-.63,1.031-.837,1.375-3.536-.916-6.844-2.557-10.418-3.297m-9.647-.064c2.028,1.25,4.232,2.199,6.266,3.448,.16-.537,.33-1.06,.494-1.589-2.227-.697-4.421-1.577-6.76-1.859m-34.667,4.354c4.848-.857,9.966-.005,14.688-1.725-3.133-.187-6.194-1.481-9.346-.852-1.002,.199-.896-1.162-1.25-1.748-.924,1.812-2.392,3.235-4.092,4.325m-36.521-1.608c-3.007,1.352-7.483,2.233-7.91,6.174,2.055,.66,3.227-1.607,4.804-2.459,3.314-1.769,6.263-4.669,10.273-4.592-.097,.533-.097,1.085,.025,1.618-3.458,1.008-6.646,2.692-9.74,4.509,.107,.155,.32,.465,.427,.62-2.611,.992-6.065,2.548-6.515,5.603,3.39-2.819,6.945-5.478,10.791-7.652,.638,.141,1.278,.282,1.917,.431,.203,1.187-.654,1.996-1.413,2.766,.876,2.848-2.302,4.804-4.186,6.378,1.057-.46,2.577-1.859,3.332-.271-1.336,1.292-2.677,2.586-3.956,3.943,1.371-.543,2.572-1.41,3.899-2.04,.057,2.582-2.786,3.066-4.616,3.928,.645,.779,1.681,.562,2.577,.659,2.088-2.107,3.744-6.519,7.371-5.488,.693,4.548-6.316,4.485-5.463,8.771,.635,.174,1.269,.353,1.908,.543,.911-.397,1.826-.799,2.741-1.192,.305-2.412,2.737-7.512,5.473-5.181-.204,2.634-2.374,4.223-3.467,6.329,2.285,.343,4.638-.427,6.368-1.912,1.085-1.522,2.092-3.115,3.516-4.345,.479,.315,.934,.663,1.405,.992-.819,1.787-2.572,2.984-3.115,4.902,1.836-.064,3.845-.069,5.42-1.149,1.171-1.264,1.836-3.069,3.511-3.806,1.637,.184,.756,1.981,.252,2.853,1.06-.422,2.101-.887,3.094-1.443-.358-.644-.721-1.289-1.08-1.924,1.231-2.188,4.136-1.883,6.291-1.937-1.001-.896-2.004-2.581-.75-3.709,1.4-1.055,3.235-1.206,4.891-1.612-.722-.776-1.666-1.904-.605-2.844,2.775-2.644,6.854-1.743,10.214-2.751-3.084-.014-6.15-.358-9.216-.663-1.051-.073-1.579-1.056-2.121-1.807-2.112,1.759-4.514,3.153-6.951,4.407-6.218,2.757-13.584,.262-18.151-4.416-1.739-1.24-2.635-3.231-3.003-5.28-2.731,1.038-5.598,1.74-8.242,3.047m91.015-4.199c1.996,1.284,4.286,1.996,6.339,3.114,.737-.522,1.482-1.036,2.224-1.555-2.746-.978-5.668-1.39-8.563-1.559m-31.785-.688c5.502,1.599,10.64,4.291,16.292,5.405-2.795-1.922-6.117-2.731-9.144-4.169-.131-.558-.252-1.109-.377-1.657-2.257,.126-4.509,.372-6.771,.421m18.331-.363c2.503,.634,4.916,1.575,7.371,2.379,.75-1.541,2.503-.392,3.724-.238,.015-.34,.048-1.013,.063-1.346-3.739-.029-7.424-.814-11.158-.795m-10.122-.034c5.065,1.438,9.918,3.628,15.11,4.616-2.45-1.522-5.124-2.829-7.9-3.574-.179-.436-.358-.873-.532-1.303-2.227-.01-4.451,.164-6.678,.261m-71.789,4.233c4.514,.819,8.084-4.789,12.583-2.765-.141-.678-.276-1.351-.403-2.024-4.155,1.317-8.513,2.363-12.18,4.789m4.451-15.681c.45,1.559,.925,3.496,2.625,4.121-1.026-1.274-1.855-2.683-2.625-4.121m40.74,13.526c2.18,.571,4.417,.916,6.669,1.075-.102-.663-.219-1.321-.306-1.981,8.926,.737,16.98,5.07,25.809,6.306-.082,.533-.097,1.07,.015,1.607-7.211-2.3-14.49-4.397-21.862-6.106-1.075-.17-2.247-.445-3.167,.242,7.036,.581,13.396,3.981,19.987,6.253-.004,.368-.019,1.108-.024,1.477-2.228-.538-4.761-.722-6.465-2.403,.44,.03,1.326,.092,1.771,.122-2.823-1.182-5.728-2.127-8.635-3.086-.198,.204-.594,.606-.793,.809-4.064,.974-8.282,1.085-12.356,1.821,3.963,.513,7.925,.999,11.915,1.201,.93,.199,.745,1.149,.824,1.869-5.087,.083-10.2,.66-15.043,2.277,3.801,1.86,8.518,.983,12.694,1.308-.084,.561-.161,1.128-.248,1.695-5.753-.175-11.841-.106-17.203,2.116,3.928,2.324,8.762,.78,13.057,.993,1.536-.097,1.448,2.228-.087,1.671-5.603-.034-11.207,1.002-16.796,1.5,3.367,1.105,7.038,.96,10.534,.722,.529,.306,.834,.78,.916,1.435,8.47-.703,16.98-1.986,25.454-.625,13.029,1.675,25.92,4.499,38.532,8.179,.16-.217,.484-.649,.649-.867,1.588-.11,3.138-.47,4.698-.794-.044-.45-.083-.89-.116-1.332,.378-.328,.76-.648,1.143-.968-.238-2.727,2.683-1.797,4.397-1.971,3.414-.954,6.949-.112,10.432-.48-2.034-.615-4.566-.082-6.112-1.815,.146-.776,.054-1.705,.717-2.268,3.24-.309,6.514,.059,9.759-.261-2.606-.809-8.011-.576-7.018-4.678,3.26-.281,6.465,.489,9.725,.3-.141-.174-.422-.523-.562-.697-2.75-.107-5.405-.954-8.151-1.12-.28-.707-.489-1.447-.625-2.188,4.224,.901,8.399,2.146,12.709,2.561-2.368-1.259-5.008-1.83-7.44-2.935-1.82-.832-4.571-1.123-4.876-3.558-2.814,2.741-6.558,3.893-10.234,4.924-3.802,1.919-8.159,1.38-12.267,1.444-3.25-.049-6.781-2.045-7.095-5.565-1.375,.789-2.998,.823-4.538,.784,.809,.384,1.602,.79,2.378,1.246-.218,.392-.431,.784-.639,1.186-5.294,.038-10.674-.94-15.88,.421,4.479,1.661,9.37,2.722,14.169,2.673,.558,.63,.916,1.352,.675,2.214-5.943-1.051-12.331-1.913-18.225-.485,3.671,2.765,8.562,.62,12.718,1.608,0,.422-.01,1.259-.015,1.676-5.995,.141-12.054-.745-18.021,.291,4.16,.905,8.5-.135,12.616,1.06,.025,.412,.068,1.245,.092,1.661-6.248-.343-12.5-1.157-18.737-1.21,.648-1.022,1.907-1.104,2.944-1.467,.838-3.192,4.867-1.459,7.226-2.113-.572-1.234-.809-2.629,.397-3.568,1.516,.023,3.027,.033,4.538-.015-1.375-.906-2.853-2.349-1.797-4.078,3.627-.238,7.255-.261,10.859-.494-3.314-.378-6.616-.964-9.963-.852-.025-.635-.062-1.269-.087-1.894,5.735,.325,11.652,1.797,17.309,.271-4.863-2.509-10.504-3.259-15.914-3.172,1.326,.79,3.951,.504,3.966,2.508-8.296-1.797-16.108-5.317-24.374-7.254,.522,.543,1.055,1.094,1.564,1.666-2.349-.678-4.747-1.448-6.785-2.828,.285-.407,.581-.805,.881-1.192,8.161-.62,16.384-.993,24.583-1.104,8.059,1.263,16.393,.702,24.258,3.09,1.837-1.817,.499-4.218-.72-5.953-2.388-3.142-5.353-6.572-9.551-6.978-8.481-1.298-17.082-2.204-25.659-2.358-10.703-.199-20.689,6.944-25.193,16.451m111.777-21.024c.107,1.821,.121,3.657,.31,5.478,.683,.029,1.371,.044,2.058,.083-.968-1.778-1.694-3.662-2.368-5.561m-154.25-.149q.276,.275,0,0m-3.411-21.078c.368,1.638-.333,3.706,.916,5.032,.01-1.723-.412-3.399-.916-5.032m83.321-23.294c-1.129,1.825,1.714,.425,0,0m-78.438-3.861c-.126,2.514,.174,5.038-.121,7.546,.241-.179,.726-.529,.968-.703-.571-2.251-.067-4.649-.847-6.843m152.706,2.697c.779-1.21,1.079-2.624,1.444-3.99-.417-.822-.805-1.661-1.202-2.49-.072,2.16-.203,4.316-.242,6.48m-1.846-10.145c-3.094,9.139-8.693,17.11-12.567,25.891-4.209,11.536-8.727,23.633-6.828,36.139,3.161-1.511,5.007-4.892,4.546-8.374-.561-6.741-.711-13.502-.318-20.253,1.045,0,2.948,.053,2.401,1.607-1.874,6.8-.154,13.74,.325,20.578,.343,4.354-3.438,7.085-6.839,8.887,.417,1.72,.998,3.399,1.541,5.09,.517-2.644,2.45-4.601,4.833-5.686,3.584-2.862,8.393-2.751,12.742-3.012-.097-2.668-.277-5.332-.179-8.001,.237-.194,.711-.576,.949-.765-4.131-11.657-3.535-24.549-.179-36.318,.624-4.838-1.454-9.869-.087-14.596-.116-.402-.228-.8-.34-1.187m-148.357-.794c-1.317,4.553-.32,9.371-.344,14.035,3.018-.576,6.117-2.94,9.29-3.953-3.71-2.634-6.301-6.47-8.946-10.082m-2.164-3.846c-1.744,4.693-1.981,9.812-2.727,14.743,.891-3.129,1.298-6.408,2.679-9.377-.166-1.254-.297-2.504-.461-3.748,.479-.198,.959-.387,1.444-.577-.315-.353-.625-.696-.935-1.041m82.893,10.853c-.305,.102-.92,.315-1.225,.417,.295,2.542-.324,5.603,1.506,7.666-.441,.47-.842,.978-1.278,1.458-1.085-.455-1.84-1.332-2.422-2.315-.019,.823-.044,1.652-.063,2.485,4.95,.644,10,.518,14.975,.155,0-.959,.005-1.914-.005-2.863-.625,.906-.92,2.122-1.869,2.746-2.408-2.426,2.614-5.356,1.05-8.422-.998,2.286-1.986,4.601-2.445,7.066-.731-.242-1.463-.446-2.203-.62,1.394-2.624,2.173-5.477,3.094-8.286,.348-.067,1.046-.208,1.395-.28-.175-1.037-.345-2.073-.504-3.115-.566,3.594-3.109,6.32-4.335,9.623-.494-.174-.988-.348-1.482-.517,.755-2.853,2.935-5.077,3.565-7.967,.417-1.308,.204-3.236,1.995-3.401-.155-1.026-.276-2.058-.368-3.089-1.786,4.276-5.036,7.685-6.679,12.005-.028,1.08-1.874,.664-1.462-.291,3.1-5.506,7.323-10.843,7.836-17.342-2.494,5.283-6.233,9.807-9.076,14.887m8.946-20.171c-.442,.524-1.018,1.415-.601,2.088,.969,.324,1.346-1.85,.601-2.088m-85.064-25.687c.993,.842,1.966,1.719,2.848,2.682-.233-.973-.44-1.956-.616-2.939-.75,.034-1.492,.15-2.232,.257m-5.696-3.584c-.29,5.705-2.212,11.221-2.028,16.96,.067,6.17,.154,12.447,1.984,18.399,2.95,6.097,6.869,12.039,12.569,15.938,2.945-.91,5.622-2.93,8.872-2.446-.087,.514-.087,1.042,.025,1.559-2.495,.074-4.868,.926-7.076,2.03,1.055,.509,2.083,1.075,3.099,1.661,1.395-.804,3.686-1.4,4.466,.524-.504,.058-1.502,.179-2.006,.241,8.689,3.463,18.424,1.264,26.714-2.314,2.262-1.231,4.107-3.042,6.078-4.66-.948,.136-1.887,.315-2.823,.534-.126-.635-.256-1.259-.392-1.88,3.438,.015,6.974-.73,8.601-4.126-3.37,.775-6.993,3.007-10.431,1.599,.314-.363,.624-.723,.944-1.08,3.637-.365,7.231-1.289,10.708-2.393,2.005-2.029,2.736-4.906,3.589-7.546,2.019-6.223,2.498-12.82,1.98-19.318-.842-4.509-1.855-9.062-1.53-13.682-4.983,2.949-9.139,7.231-12.064,12.19-2.45-.005-5.149-1.526-7.832-1.09,.011,.373,.029,1.124,.039,1.497-1.109,.3-2.16,.765-3.133,1.38,1.09-.064,2.798-1.095,3.381,.363,.314,1.82-1.701,2.925-2.616,4.243,1.25-.383,2.557-.762,3.85-.33-.01,.392-.034,1.182-.049,1.579-1.312,1.477-4.067,5.293-5.06,1.477-3.695-.571-1.013-3.709,.392-5.283-1.095,.149-2.281,.42-3.123-.49,.009-.367,.024-1.109,.034-1.477,1.336-1.216,2.769-2.311,4.208-3.395-2.979-.053-5.933-.503-8.911-.532,.406,.643,.701,1.35,.741,2.12-1.279,.388-2.543,.819-3.802,1.269,1.07-.048,2.116,.039,3.075,.543-.145,1.307-.988,2.223-2.203,2.649,1.108,.217,1.825,.979,1.884,2.121-.871,.839-1.754,1.666-2.723,2.393,.946-.029,1.768,.328,2.471,.954-.813,1.603-2.489,2.983-4.325,2-2.495-.809-.572-3.652,.814-4.635-1.046-.372-2.311-.76-2.426-2.068,.76-.911,1.897-1.38,2.895-1.971-1.312,.204-2.639,.164-3.816-.514,.005-.362,.01-1.089,.01-1.452,2.009-1.051,4.189-1.826,5.986-3.245-3.197,.625-6.432,.973-9.658,1.41-.043,.318-.134,.963-.179,1.288-1.579,1.075-3.201,2.265-4.087,4.015,1.783-.364,3.472-1.115,5.303-1.231-.073,.66-.126,1.323-.213,1.986-1.075,.523-2.073,1.177-3.041,1.879,.745,.155,1.477,.368,2.193,.634-1.564,1.163-3.327,2.504-5.399,2.001-.238-.591-.446-1.187-.674-1.778,.838-.606,1.652-1.234,2.47-1.865-1.331-.178-3.26-.735-2.761-2.489,.901-1.351,2.219-2.358,3.25-3.603-1.917,.295-4.029,1.361-5.835,.136-5.28-3.007-7.376-9.415-12.409-12.679m9.963-4.189c2.106-.761,1.414-3.483,1.947-5.211-.76,1.69-1.472,3.409-1.947,5.211m46.823-67.091c.338,.198,.678,.397,1.021,.595,.31-1.002,.596-2.014,.784-3.051-.629,.8-1.209,1.633-1.805,2.456m18.01-51.327c.844-.475,2.054-.63,2.311,.581,.378,9.657-.925,19.247-2.475,28.758-.683,1.172-1.569-.455-2.475,.126-.218,2.388-1.113,4.708-1.138,7.09-.121,.223-.364,.664-.484,.887,.155,1.796,.102,4.092-1.521,5.225,.368-8.02,2.872-15.808,2.998-23.861-1.177,3.753-1.661,7.7339-3.565,11.25,.46,.024,1.376,.078,1.836,.102-2.116,4.388-3.995,8.887-5.448,13.536-1.526,4.228-3.754,8.49-3.366,13.11-.286,.203-.867,.605-1.158,.804-.412-.469-.823-.94-1.226-1.414,1.435-5.424,3.808-10.558,5.236-15.958-3.806,6.911-5.802,14.553-8.513,21.91-.742,1.957,.12,4.219-.795,6.097-.538,1.385-2.306,.228-2.262-.823,.813-4.427,2.868-8.49,4.01-12.82-1.608,2.461-2.324,5.333-3.361,8.054-1.797,4.897-4.519,9.396-6.068,14.394-.112,.906-1.023,1.114-1.72,1.434-.189-.262-.567-.78-.755-1.037,3.913-7.463,7.415-15.202,9.759-23.329-1.937,2.204-3.429,4.795-5.686,6.713,.567,.353,1.118,.741,1.699,1.075-.333,.765-.663,1.535-.978,2.31-.179-.15-.537-.455-.716-.605-1.884,6.315-4.016,12.591-6.485,18.709-.687,1.733-.615,3.946-2.417,4.998-.393-.441-.79-.877-1.182-1.318,3.895-7.318,6.345-15.289,8.359-23.271-4.136,3.666-6.45,8.834-7.191,14.263-.17,.208-.508,.62-.679,.828-.668,4.979-2.391,9.72-3.288,14.645-.233,.514-.774,.78-1.167,1.163-.305-.378-.61-.751-.91-1.124,2.155-7.056,4.188-14.156,5.719-21.382-.843,.775-1.623,1.613-2.339,2.504,.16,.233,.48,.702,.634,.935-3.071,3.855-2.692,9.201-4.072,13.745-.785,5.24-2.422,10.296-3.535,15.458-.374,0-1.125,.005-1.497,.005-.355-3.423,1.438-6.795,1.356-10.292,.339,.33,.682,.659,1.027,.993,.934-5.661,2.091-11.279,3.147-16.916-8.829,8.383-15.531,18.786-20.079,30.06,.519,3.753-1.691,7.174-1.646,10.913-.611,3.2-.266,6.411,.581,9.53-.558,.141-1.105,.315-1.637,.528-.993-1.922-1.129-4.073-1.39-6.175-.354,2.339-.131,4.717-.078,7.071-.291-.015-.872-.039-1.163-.049,1.492,1.7,3.014,3.942,5.41,4.272,6.621-.867,13.174-2.368,19.862-2.751,4.213,.184,8.407,.659,12.607,1.07,1.147-.023,2.62,.494,3.491-.518,3.947-4.954,8.717-9.381,14.296-12.427,.931-.639,1.609,.46,2.103,1.095-2.117,3.535-1.245,7.811-.489,11.604,2.499,10.132,.856,20.848-3.086,30.394,3.706-1.089,7.497-2.397,11.396-2.252,.16,1.473-1.22,2.935-2.692,2.577,.125-.305,.377-.925,.504-1.234-3.357,.75-6.825,1.234-10.031,2.508-1.38,1.545-2.397,3.399-3.952,4.799,4.8-.372,9.576,.509,14.113,2.039,1.613-2.639,2.45-5.661,3.763-8.456,.33-.038,.653-.072,.988-.106,.005-.326,.015-.974,.02-1.299,.784-.242,1.583-.145,2.358,.074-.136,3.389,.659,6.711,.76,10.087,4.03-4.649,7.899-10.01,9.187-16.117-2.334,3.331-3.98,7.075-5.535,10.809-.576-.179-1.143-.353-1.715-.533,3.531-5.215,6.917-10.871,8.122-17.105,1.337-.15,1.211-1.549,1.284-2.542,.004-4.461,3.003-8.2,3.646-12.52,.33-.067,.988-.199,1.318-.261,5.283-13.43,7.356-27.955,9.574-42.077,2.349-3.574,.146-8.32,2.451-11.798,.387,3.914,.407,7.841,.451,11.697-2.204,6.978-2.451,14.388-4.185,21.484-1.927,10.731-5.801,20.897-9.652,31.054-3.105,4.842-2.053,10.944-2.301,16.426,1.241,7.4,1.453,14.917,2.825,22.308,7.757-.499,16.064-3.004,20.878-9.517,3.046-4.625,4.334-10.122,6.828-15.038,2.127-4.339,3.458-9.071,6.122-13.139-.335-.044-.998-.141-1.328-.188-1.457-3.047-.502-6.48,.35-9.551,.382-1.502,1.859-2.107,3.264-2.228,.368-2.519,.242-5.545,2.557-7.187-.48,2.984-.969,6.034-.344,9.042,.3,.993-.731,1.336-1.517,1.409-.41-.59-.827-1.172-1.244-1.748-2.615,2.48-2.848,6.936-1.492,10.136,2.15-4.697,5.691-8.664,9.595-11.991-.247-.208-.742-.625-.988-.832-.392-3.275,.44-6.5,.745-9.745-.014-1.259,1.018-2.04,1.845-2.81-.508,3.948-1.83,8.036-.735,11.987-.107,.277-.315,.829-.422,1.104,2.78-1.772,6.175-2.795,9.459-2.024,2.441,.664,3.419,3.274,4.432,5.333,1.592,3.186,.323,6.761,.077,10.098-.529,6.557-1.971,13.002-3.962,19.261,3.167-.272,2.155,3.747,3.855,5.428,3.129-7.221,7.657-13.754,12.592-19.813,4.14-3.657,7.759-8.247,13.081-10.248,2.581-1.09,5.851-1.075,8.108,.747-.117,.406-.184,.822-.209,1.249-1.472-.437-2.892-1.148-4.446-1.226-4.877,.863-8.504,4.456-11.962,7.72-4.422,3.579-7.511,8.447-10.699,13.082-5.753,8.663-8.228,18.911-10.747,28.845-1.418,7.535-.125,15.124,1.086,22.553,1.433,5.74,4.562,10.877,6.014,16.563-1.646,1.492-3.811-.31-5.719,.369-5.773-1.472-12.224,.435-16.312,4.75-1.093,2.034-2.561,4.36-1.656,6.723,.407,1.463-1.476,1.559-2.372,1.013-.819-3.1-1.313-6.277-2.209-9.352-.77-.127-1.54-.248-2.295-.417-.19-1.53,.76-2.558,2.048-3.183-1.298-8.881,.16-17.89,3.061-26.317,3.06-12.015,9.87-22.5,14.935-33.682-1.805,.484-3.138,2.048-4.958,2.421-1.924-.276-4.233,1.607-5.589-.533-1.415,1.593-3.938,4.475-5.75,1.671,.141-.678,.281-1.351,.427-2.024-1.53,1.428-3.792,3.801-5.618,1.38-.445,.227-.887,.46-1.322,.698-.47-.32-.935-.631-1.395-.951,.562-3.103,3.521-6.184,1.942-9.327,.62-.524,1.395-.731,2.189-.833,.877,2.257-.039,4.601-.649,6.8,.717-1.119,1.322-2.306,1.918-3.487,.596-.005,1.197-.01,1.797-.005,.019,.586,.033,1.177,.043,1.772-1.336,1.255-2.227,2.896-2.716,4.655,2.567-1.526,4.837-3.565,6.436-6.102,.446-.795,1.419,.052,2.039,.188-.784,2.277-2.524,4.107-3.037,6.49,1.052-.668,2.063-1.395,3.129-2.038,1.404-1.991,1.927-5.435,4.683-5.876,1.453,2.587-2.591,3.929-2.403,6.519,2.694-.203,2.093-4.804,4.829-4.062,1.351,.691-.01,2.168-.44,3.046,3.355-.345,3.124-5.241,6.354-5.149,2.029-5.787,3.051-11.866,3.888-17.925-1.244,2.694-3.99,7.115-7.428,4.829-1.366,.906-2.901,.571-4.146-.368-1.23,2.116-4.567,3.26-5.909,.596-.828,.586-1.753,.998-2.789,.926-1.507-3.517,.223-7.232,1.627-10.472,.363-1.221,1.966-1.196,2.649-.266-1.307,2.644-2.659,5.395-2.915,8.373,1.564-1.873,2.373-4.208,3.583-6.29,.693,.053,1.385,.14,2.073,.261-.606,2.548-2.828,4.673-2.165,7.463,2.137-.823,3.811-2.465,4.524-4.659,.809-1.593,1.404-4.15,3.71-3.816,1.409,2.76-2.358,4.392-2.606,6.988,2.736-.934,2.771-4.799,4.509-6.925,.973-.111,2.286,.276,1.927,1.535,.248,2.058-3.419,3.972-1.927,5.555,2.586-1.361,2.935-4.45,3.883-6.906,.596-.092,1.197-.179,1.798-.266,.155-3.435,.46-7.226-1.734-10.122-3.128-3.691-8.567-.824-11.323,1.975-5.627,4.287-8.606,10.859-11.483,17.111-2.339,6.122-5.023,12.098-7.429,18.191-2.005,3.443-4.121,7.486-8.131,8.862-5.338,3.231-11.721,4.224-17.851,4.495-7.111,1.075-14.283-.039-21.403-.251-7.99-.951-16.814-1.271-23.493-6.176,1.192-1.085,2.687-.445,3.913,.208,6.994,3.865,15.227,3.55,22.927,4.615,.005-.329,.014-.983,.024-1.308-2.799-.953-.668-3.97-.43-5.937,.018-1.084,.832-1.477,1.791-1.574,.097,.911,.184,1.821,.315,2.732,.901-3.521-.484-7.395-.624-11.018-1.963,3.274-3.759,6.669-4.912,10.325-.281-.14-.852-.42-1.138-.556,.218-.921,.46-1.826,.693-2.732-3.628-1.042-7.352-1.986-11.158-1.598-1.638,.193-3.623-.44-4.896,.92-3.445,2.746-6.385,6.572-10.941,7.444-8.665,3.898-18.912,4.256-27.775,.842-4.286,1.521-7.938,4.62-11.256,7.719-1.229,1.067-1.927,2.897-3.714,3.125,2.068-5.754,8.252-8.635,12.838-12.219-1.2-.611-2.416-1.192-3.632-1.768-3.133,1.152-6.257,2.494-9.056,4.325-2.136,1.961-.354,4.824-.325,7.225-2.668-.45-1.196-4.639-3.602-5.695,.595,4.049,1.346,8.093,2.929,11.89-.513,.315-1.027,.63-1.544,.94-1.371-3.598-2.495-7.313-2.912-11.163-.536,3.079,.296,6.155,.553,9.221,1.109,4.954,1.322,10.475,4.639,14.597-.199,.464-.396,.93-.595,1.395-.451-.276-1.114-.316-1.362-.834-2.115-4.223-3.156-8.872-4.106-13.459-1.143-1.1-1.264-2.674-1.351-4.174-.121,1.544-.378,3.08-.742,4.586,.63-.14,1.261-.208,1.894-.077-.862,4.441,.233,9.037,1.095,13.434,.557,2.892,4.427,5.231,2.726,8.31-.464-.184-.924-.367-1.385-.546-1.172-2.407-2.096-4.916-3.157-7.372,.673,3.59,1.56,7.153,2.911,10.559,1.114,2.349,3.23,3.98,4.688,6.101-.209,.524-.422,1.052-.634,1.584-2.336-.803-3.066-3.419-4.853-4.911,.886,3.197,2.517,6.272,5.268,8.239,1.381,1.52,3.9,3.336,3.037,5.637-1.443,.412-2.64-1.346-3.85-2.029,.024,.644,.053,1.287,.083,1.942,.852,.246,1.705,.489,2.562,.74-.484,.683-.941,1.395-1.381,2.117-1.923,.348-3.748,1.138-5.27,2.382,3.352-.673,6.287-3.355,9.789-3.05,4.233-4.702,10.994-5.662,15.832-9.497,3.884-3.885,4.092-9.711,4.489-14.855-.469-8.901-.513-17.841-.576-26.738,.532,.165,1.065,.339,1.598,.514,.838,6.281-.596,12.625,.416,18.883,.451,7.269,.562,14.873-2.513,21.643-4.156,5.304-11.454,6.034-16.428,10.258-2.547,2.072-.949,5.816,.465,8.122,.732-1.758,1.735-3.395,3.133-4.702,1.072,.004,2.644,.305,1.976,1.752-.387-.029-1.162-.096-1.549-.131-3.395,1.918-1.23,6.238,1.825,7.124-.323-1.917,.717-3.452,2.408-4.247,2.94,.688,.019,2.113-.862,3.323,.382,.635,.755,1.278,1.113,1.938,6.156,1.321,11.987-2.214,16.326-6.249,2.915-2.944,3.846-7.254,6.79-10.169,2.292-2.413,4.81-4.612,7.493-6.574,7.158-4.508,15.982-4.532,24.128-3.806,6.562,.868,13.202,1.095,19.681,2.552,5.382,1.574,8.627,6.587,11.14,11.246,.688,2.325-1.666,4.102-2.373,6.194-2.848,.562-5.662,3.162-5.202,6.268,.126,1.616,1.748,2.247,2.935,3.002,.566-2.019,1.298-3.995,2.335-5.822,.343-.018,1.036-.062,1.384-.082,.267,.431,.543,.878,.819,1.318-1.433,1.283-2.625,3.017-2.49,5.032,1.676,.208,3.367,.246,5.057,.194,.276-1.875,.891-3.662,1.428-5.469,.476,.19,.955,.383,1.434,.577,.097,.232,.291,.687,.388,.915-.576,1.24-.959,2.557-1.105,3.923,6.543-2.577,15.721-4.79,17.251-12.757,.456-.271,.911-.537,1.375-.799,.471,.605,.946,1.216,1.43,1.822-.616,1.268-1.226,2.542-1.812,3.83,.911,.271,1.831,.533,2.746,.805,.024-.335,.077-.998,.102-1.328,1.487,.417,2.978,.872,4.325,1.656,.682-1.423,1.452-2.813,2.358-4.111,.519,.484,1.051,.973,1.599,1.447-1.023,1.517-1.773,3.197-2.262,4.96,2.669,1.177,5.328-.349,7.85-1.182,.209-1.249,.537-2.47,.988-3.647,1.376,.363,1.836,1.512,1.627,2.824,5.701-1.39,11.503-2.63,17.406-2.344,4.675,.241,9.343-.522,14.011-.155,10.064,.261,19.881,2.863,29.887,3.734,8.509,1.691,17.217,1.177,25.838,1.254,7.957-.411,16.083-.727,23.653-3.487,11.521-3.327,22.718-8.363,32.251-15.721,9.477-7.952,17.831-17.357,24.331-27.9,4.208-7.924,7.831-16.234,9.894-24.995,1.768-3.72,1.249-7.953,2.557-11.812-.499-3.172,.678-6.359,.325-9.575,1.079-10.093-.233-20.277-2.669-30.085-1.748-15.513-6.534-30.869-15.44-43.824-6.155-8.311-14.064-15.048-21.823-21.79-9.41-6.441-20.679-10.984-32.249-10.34-6.296,.209-13.232,2.301-16.937,7.769-4.159,5.773-7.177,13.008-5.661,20.234,1.646,7.318,6.659,13.367,12.156,18.234,4.697,3.603,9.73,6.737,14.5,10.243,15.018,9.991,26.627,27.189,25.964,45.723-.184,7.711-2.979,15.019-6.083,21.973-3.23,6.204-7.604,11.686-11.793,17.252-4.606,5.622-11.27,8.799-16.955,13.134-8.108,5.327-16.361,11.716-26.439,12.156-.876,1.099-1.631,4.421-3.414,3.026-.198-2.063,1.555-3.565,2.334-5.308,1.468-5.758,4.649-10.984,5.458-16.925,3.57-14.584,2.756-29.771,.867-44.528-2.154-15.168-9.125-29.441-18.713-41.291-7.362-10.282-18.278-17.228-29.277-23.059-3.627-2.145-7.778-3.593-10.731-6.727-3.841-3.332-5.58-8.242-8.282-12.412-.335,5.598,2.334,10.853,5.244,15.469,.794,1.487,2.79,2.44,2.534,4.334-1.822-.416-2.674-2.194-3.826-3.473-3.347-4.983-5.439-10.703-6.568-16.577,.398-.31,.799-.62,1.206-.925,.466,.213,.93,.431,1.4,.649-.256-.741-.494-1.482-.745-2.218,.861,.111,2.212-.272,2.498,.886,3.182,7.027,7.192,14.587,14.67,17.764,3.685,1.114,6.63,3.671,9.889,5.623,9.623,4.76,18.206,11.831,24.448,20.612,3.143,4.024,6.475,7.996,8.592,12.689,3.38,6.219,6.557,12.64,8.073,19.599,3.589,17.183,4.582,35.123,1.051,52.403-.645,6.358-3.492,12.184-5.816,18.059,11.875-1.235,21.052-9.734,30.786-15.793,9.658-5.366,15.532-15.091,21.465-24.032,2.95-7.287,6.461-14.77,5.918-22.859,.523-13.376-6.102-25.992-15.115-35.475-7.657-7.739-17.561-12.698-25.896-19.61-5.656-5.709-11.294-12.571-11.821-20.936-.655-5.08,1.612-9.947,3.854-14.369,2.233-5.032,6.403-9.449,11.837-10.945,4.8-1.976,10.039-1.904,15.135-2.093,8.906,.659,17.303,4.282,24.935,8.732,4.544,3.124,8.476,7.018,12.584,10.675,9.294,7.879,16.306,18.205,20.883,29.455,5.036,11.352,5.947,23.881,8.645,35.873,.852,5.55,1.636,11.148,1.554,16.776-.64,9.991-.533,20.243-3.793,29.833-4.223,14.999-11.487,29.416-22.494,40.59-8.171,9.405-18.167,17.361-29.741,22.132-2.641,1.254-5.202,2.693-8.007,3.565-7.202,2.178-14.393,4.916-22.007,5.134-9.826,.581-19.671,.47-29.503,.082-9.076-1.206-18.156-2.344-27.179-3.899-6.437-.862-12.941-.78-19.412-.537,.941,.367,1.885,.73,2.819,1.127,.32-.367,.644-.735,.974-1.093,8.16-.422,15.851,3.05,22.385,7.68,3.365,1.812,6.833,5.502,5.961,9.618-1.09,3.265-2.848,6.475-5.275,8.926-6.411,3.938-13.73,6.457-21.158,7.522-3.298,.775-6.751,.479-10.011,1.51-15.662-1.564-31.581-1.646-46.963-5.326-6.5-1.953-13.115-3.483-19.565-5.571-10.326-2.464-20.753-4.542-31.263-6.009-4.005-.3-8.044-.871-12.049-.272-9.221,.809-18.501,1.467-27.591,3.265-1.424,.823-3.497,2.712-4.689,.552-1.805,1.588-5.922,3.933-7.302,.731-2.237,.345-4.412,1.574-6.703,.819-2.707-.839-5.942,1.384-8.035-1.293-4.978-2.185-8.901-6.524-10.756-11.609,.262-2.262,1.647-4.48,.562-6.771,.842-2.63,3.361-4.441,3.864-7.303,2.756-2.567,5.464-5.54,9.13-6.795-4.088-3.889-6.611-9.217-7.348-14.791-1.603-6.717-1.418-13.666-2.024-20.51,.286-4.286,.378-8.626,1.477-12.805,2.049-9.724,1.022-19.896,3.561-29.566,.556,.014,1.113,.037,1.669,.067-2.344-5.254-2.479-11.096-2.712-16.742-1.04-5.705,.427-11.396,1.448-16.989,.059-2.282,1.251-4.655-.082-6.781,.243-.179,.732-.538,.973-.717,.069-.586,.141-1.172,.223-1.748,2.339-.305,2.379,1.695,1.919,3.39,1.835,1.651,3.559,3.443,4.988,5.468,.45-2.291,.974-4.587,1.967-6.713,3.767-10.122,8.15-20.074,13.816-29.291,3.275-3.511,5.648-7.831,9.459-10.843,6.689-8.137,14.354-15.444,20.975-23.659,3.458-4.208,6.165-8.935,9.487-13.245,4.989-9.1,8.316-19.082,10.418-29.233,.814-4.276,.295-9.173,3.046-12.819-.291,4.572-.862,9.109-1.312,13.662,.222,.165,.668,.494,.891,.659-.16,4.668-.557,9.381-1.767,13.88,.217,.266,.445,.532,.673,.794,2.232-9.347,3.704-19.251,1.81-28.792m35.006-3.947c.669-.678,1.54-.939,2.474-.968,3.793,9.134,3.333,19.299,5.305,28.864-.703,.75-1.986,2.102-2.703,.586-1.182-9.497-.857-19.595-5.076-28.482m-19.333-16.902c2.804-.422,5.952,.518,8,2.547-1.07,1.313-2.314,2.46-3.555,3.599,.519,.329,1.037,.663,1.566,.993-.035,1.7339,.653,3.283,1.989,4.397,.862-.959,1.996-1.473,3.299-1.375,.775,2.552-2.562,4.112-4.587,3.084-1.448-.61-2.175-2.101-2.925-3.38-.886,1.317-1.467,3.036-2.989,3.763-1.806,.155-3.332-1.104-4.619-2.228,.11-.944,.571-2.392,1.796-2.097,.586,.848,1.152,1.72,1.947,2.393,1.114-1.274,1.337-2.969,1.695-4.553,.964,.019,1.904-.13,2.698-.726-.596-.228-1.191-.446-1.787-.664-.911-2.01-3.677-3.157-2.528-5.753m-14.544-9.09c1.259-.921,2.756,.338,2.64,1.758,.067-.335,.198-1.008,.266-1.342,.843-.702,1.763-.785,2.624-.053-.067,.348-.198,1.04-.261,1.39-1.239,1.37-2.552,2.702-4.208,3.564-2.412-.78-1.671-3.497-1.061-5.317m33.456-1.57c2.179-.446,2.81,1.444,1.516,2.964,.634-.634,1.279-1.264,1.908-1.908,.64,.015,1.283,.03,1.928,.044-.029,.769-.039,1.535-.029,2.305-1.996,.552-3.613,2.145-5.763,2.14-1.551-1.723-.484-3.821,.44-5.545m17.759-18.491c1.884-2.673,4.175-5.627,3.996-9.07-1.094,3.133-3.075,5.874-3.996,9.07m2.625-10.824c.456,.267,.911,.538,1.365,.809-.077-1.1479-.135-2.3-.139-3.453-.403,.886-.814,1.767-1.226,2.644m-65.826-5.172c-.122,1.196-.131,2.397-.127,3.598h.407c.025-1.206,.557-2.543-.28-3.598m-2.93-1.564c-.33,.615-.291,1.447,.028,2.063,.684-.063,.988-2.388-.028-2.063m-5.75-3.696c-.677,2.911-2.614,5.991-1.205,8.969-.451,2.412,.45,4.911-.305,7.25-.208-.072-.625-.217-.833-.29-.644,8.252-1.967,16.8589,.702,24.8979,1.55,7.027,5.943,13.348,12.108,17.086,4.058-.421,8.064-2.349,12.199-1.637,.287,.868,.228,2.301-.993,2.277-2.955-1.448-6.252,.377-9.332,.668,1.389,.901,2.76,1.84,4.03,2.911,1.699-.848,3.757-2.582,5.487-.819-.461,1.656-2.326,1.376-3.647,1.72,1.51,.988,2.982-.494,4.422-.9351,.527,.228,1.05,.455,1.583,.683-.208,1.056-1.176,1.457-2.058,1.854,7.357,2.601,15.309,3.875,23.096,2.989,4.882-.707,8.994-3.652,13.158-6.073-1.132,0-2.266,.043-3.399,.096-.382-.828-.62-1.612,.02-2.377,2.527,.688,5.927,1.012,7.535-1.546-2.116-.174-7.125,3.1-6.621-.799,3.12-.261,6.127-1.172,9.208-1.676,1.007-1.035,1.946-2.14,2.654-3.404-4.011,1.308-7.957,2.819-11.857,4.417-1.065,.518-1.53-.683-1.912-1.414,5.099-1.918,10.344-3.405,15.41-5.3849,.77-2.466,2.103-4.689,3.061-7.071,2.503-6.039,3.051-12.631,3.4-19.087-.475,.993-1.207,1.807-2.412,1.656-.446-.508-.886-1.017-1.322-1.535,.121,1.5551-2.073,1.487-2.572,.3781-.988-2.185,.77-4.286,1.424-6.301-.368-.305-.732-.61-1.095-.915,.184-.979,.407-1.947,.634-2.915-.537-.776-1.302-1.676-.857-2.684,.882-3.123,2.795-5.826,4.437-8.592-2.175,.03-4.064,1.197-5.783,2.408-4.833,3.501-8.441,8.339-12.287,12.834-7.031-3.497-15.11-3.976-22.839-4.398-3.918-.344-7.904-.276-11.755,.557-.435,.392-.808,.828-1.128,1.313-.852-.8329-1.884-1.366-3.09-1.008,.078,.664,1.017,1.8311-.014,2.17-1.337,.61-2.078-1.206-2.65-2.112-1.21,.063-2.411,.243-3.583,.533-2.034-2.4109-5.705-3.318-6.562-6.606-1.13-2.886-2.791-5.492-4.457-8.088m-2.197-.402c.333-1.574-.025-3.511,1.578-4.475,4.756,2.228,7.375,7.536,12.403,9.449,1.671,3.8409,5.318,7.7289,9.861,7.125,7.671-1.5941,15.439,.115,23.144,.3,3.492,.915,7.061,1.574,10.51,2.644,3.066-2.32,5.201-5.58,7.922-8.262,4.224-3.259,8.709-7.579,14.569-6.19-.373,8.863,1.104,17.736,.043,26.569,.049,7.724-2.082,15.174-5.506,22.046,4.053-.983,8.087-2.005,12.282-2.218,0,.367-.004,1.104-.004,1.472-4.558,.077-8.965,1.429-13.32,2.644-.648,1.143-1.298,2.286-1.932,3.434,3.657-.581,7.323-1.206,11.028-1.4,1.341-.324,1.52,2.174,.296,2.209-3.9-1.08-8.011,.174-11.867,1.075-1.84,.262-2.895,1.869-4.106,3.09,5.138-.102,10.747-1.386,15.599,.571-.329,.417-.663,.828-.997,1.2401-5.386-1.4821-11.023-.329-16.447,.339-5.744,4.218-12.074,8.422-19.416,8.921-8.248,.431-16.389-1.278-24.167-3.889-4.945,2.499-9.667,5.4-14.509,8.078-.809,.364-1.192,1.182-1.594,1.913-1.191,.237-2.915-1.201-1.516-2.15,5.022-3.23,10.568-5.637,15.532-8.989-.426-.247-.852-.499-1.274-.746-5.899,2.063-11.691,4.514-17.241,7.367,2.218-.373,4.223-1.434,6.368-2.049-.469,1.491-2.373,1.618-3.555,2.354-1.782,1.007-4.571,1.801-5.67-.557,5.626-3.681,12.339-5.236,18.325-8.238-1.661-.955-3.235-2.054-4.755-3.207-1.192,.262-2.383,.528-3.584,.742,.087,.372,.179,.745,.267,1.118-3.865-.382-8.637,4.548-11.585,.586,4.44-1.002,8.829-2.436,13.274-3.593-8.988-6.228-13.067-17.445-13.042-28.061,.169-6.867,.77-13.715,1.641-20.525-.924-3.69,1.042-7.1281,1.445-10.7371"/><path class="cls-3" d="M427.96,529.729c-.386,2.362-.145,4.756,.022,7.125,.126-2.374,.401-4.768-.022-7.125m2.092-3.18c-.186,4.806-.14,9.626-.443,14.432,1.796-.529,3.682-.473,5.533-.346,.181-4.432,.413-8.872,.171-13.308-1.65-.806-3.471-.886-5.261-.778m7.33-.689c1.981,.816,4.142,1.772,6.196,.591,3.649-1.068,9.921,1.438,10.995-3.756-5.514,2.116-11.464,2.094-17.191,3.165m-225.992-9.045c2.003-.51,4.834-.51,5.843,1.687,1.022,2.318,3.882,2.145,5.987,2.159,7.503-.014,14.317-4.449,21.871-3.808,2.711,.192,5.035,1.804,7.671,2.334,5.01,4.06,11.848,6.229,18.292,5.091,4.731-.689,9.789-2.075,14.391-.061,5.04,1.883,10.296,.308,15.359-.492,4.244-.792,8.493,.234,12.551,1.434,5.96,2.646,12.737,2.473,19.022,1.254,6.846-.848,13.499-4.085,20.514-2.853,5.061,.375,9.148,3.964,14.168,4.553,10.748,2.47,20.658-5.962,31.414-3.526,4.77,1.518,9.879,2.716,14.867,1.583,4.315-.627,8.433-2.118,12.603-3.335,1.65-.118,2.496,1.831,4.109,1.864,5.372,.628,10.497-1.934,15.869-1.49,3.673,.061,7.275-3.072,10.752-1.859-.288,.197-.863,.586-1.148,.783,.335,.163,1.008,.5,1.348,.668,.372,3.153-3.077,5.312-5.876,5.172-3.625-.15-7.414-.322-10.695,1.523-.81-.67-1.67-1.261-2.553-1.808-.26,4.571-.605,9.162-.167,13.737-2.557,.492-6.309,2.661-8.233,.192-.326-.088-.641-.168-.953-.247,.033,3.803-.111,7.607,.051,11.41,.121,.726-.358,1.288-.73,1.85-3.253-.899-7.813,1.481-10.156-1.967-.628-8.441-.056-16.97-.531-25.434,.655,.079,1.707-.159,2.004,.665,.162,8.08-.66,16.366,.972,24.356,2.027,.886,4.239,1.162,6.257,.076-.023-4.389,.367-8.774,.065-13.153,.069-4.305-.716-8.67,.223-12.924,.576-.159,1.166-.304,1.767-.425-1.335-.507-2.715-1.326-4.175-.853-5.82,1.456-11.625,3.901-17.739,3.139-3.43-.281-6.633-1.599-9.957-2.352-9.604-1.387-18.259,5.897-27.863,3.896-5.295-.495-9.758-3.633-14.834-4.875-8.803-1.195-16.999,3.246-25.701,3.555-7.14,1.354-13.853-1.869-20.658-3.353-7.28-1.322-14.694,3.516-21.839,.538-6.052-2.534-12.444,.519-18.654,.271-5.021,.038-9.437-2.496-13.858-4.529-.097,5.963-.149,11.959,.451,17.888-2.319,.727-4.997,2.048-7.363,1.106-.167,.22-.502,.665-.67,.885-2.71-7.082,.257-15.059-1.101-22.433,.715,.029,1.437,.105,2.157,.216-.689,6.694-.744,13.43-.67,20.151,1.813-.613,4.673,.446,5.435-1.986,.386-5.667-.442-11.33-.186-17.049-5.281-3.298-11.687-1.79-17.219-.085-.86,8.454-1.227,17.05-.567,25.547,.688,1.423,.382,2.941-.255,4.323,2.078,1.555,4.866,2.169,7.377,1.588-.902-5.156-1.176-10.393-2.106-15.537,.093-5.611,.353-11.209,.717-16.806,.324-.014,.975-.043,1.3-.057,.219,.164,.665,.497,.888,.661-1.046,3.101-.698,6.427-1.194,9.626-.47,7.738,1.705,15.303,2.7,22.915-.017,.885-1.046,1.465-1.859,1.297-2.585-.207-5.207-.262-7.735-.862-1.111-.534-1.511-1.743-1.363-2.899-1.361-2.502,.145-5.513-.203-8.231-.66-6.937,.556-13.883,.05-20.821-4.048,.975-8.283,1.617-12.42,.928-2.743-.393-3.589-4.646-6.796-3.288-.293-.543-.637-1.054-1.018-1.523m228.181-25.026c.423,.014,1.279,.047,1.706,.066,.549,6.196,.307,12.519,1.358,18.693-.163,.277-.488,.83-.646,1.106-1.813-3.176-1.13-6.999-1.52-10.497-.568-3.101-.153-6.3-.898-9.368m-205.697-3.189c.238-.104,.712-.305,.944-.408,.246,.122,.73,.365,.976,.487-2.96,6.698-.46,14.558-3.254,21.265,.302-7.115-.171-14.342,1.334-21.344m203.42-2.207c.465,.038,1.39,.113,1.854,.154-1.561,6.918-2.667,13.944-4.387,20.826-.462,1.789-.247,3.864-1.535,5.335-.6-1.489-.362-3.087-.084-4.61,1.553-7.194,3.344-14.379,4.152-21.705m-204.898-2.651c.363-1.944,.772-3.892,1.469-5.748,.404,.478,1.223,.871,.865,1.635-1.752,7.069-4.082,13.987-6.718,20.769-.325,.965-.896,1.808-1.622,2.511,1.636-6.483,4.56-12.614,6.006-19.167m210.629-9.823c.461,.352,.967,.665,1.442,1.026,.017,2.655,.97,5.171,1.566,7.733,.767-2.3,2.385-4.136,3.696-6.121,.274-.006,.832-.014,1.106-.014,.348,.571,.958,1.273,.236,1.845-2.356,2.763-3.992,6.389-3.672,10.056,3.872,8.764,6.402,18.016,9.349,27.117,.707,2.459,4.138,5.218,2.17,7.682-.464-.319-.915-.628-1.366-.932-.999-3.898-3.352-7.285-4.22-11.238-2.874-10.947-7.834-21.303-9.549-32.539-.362-1.528-1.367-3.008-.758-4.615m-212.162,1.762c.394-1.04,1.1-1.856,2.305-1.799-1.296,4.871-4.11,9.19-6.281,13.719-1.785,4.834-5.503,8.712-6.782,13.786-2.174,5.021-4.624,9.986-6.861,14.928-.446-3.115,1.208-5.926,2.348-8.694,2.319-4.258,3.555-9.003,5.904-13.246,3.379-6.094,6.633-12.278,9.367-18.694m89.762-3.457c1.664-.089,3.337-.085,5.002,.117-1.609,.365-3.491,.679-5.002-.117m-75.971-1.621c.656-.286,1.604-.159,2.162,.309-.209,.815-2.283,.576-2.162-.309m31.21-3.897c.516,.019,1.037,.042,1.567,.061,.224,1.297,.172,2.618,.009,3.92-.436-.032-1.315-.098-1.752-.13-.284-1.299-.679-2.685,.176-3.851m128.115-9.504c-.447-1.063-.09-1.967,.966-2.417,.483,.37,.976,.735,1.474,1.115-.178,.44-.345,.881-.508,1.33-.655-.014-1.296-.024-1.932-.028m-5.993-2.318c.911-.084,1.826-.024,2.729,.201-.205,.848-.289,2.037-1.289,2.313-1.096-.374-1.361-1.489-1.44-2.514m10.822-.329c1.11-.206,2.12,.137,2.672,1.176-.227,.426-.44,.858-.651,1.288-.307,.052-.914,.16-1.221,.216-.597-.783-.865-1.7-.8-2.68m6.312-.187c.549-.127,1.111-.238,1.673-.356,1.098,1.002,.782,2.408-.548,2.964-.469-.336-.929-.668-1.39-.997,.084-.538,.164-1.078,.265-1.611m-20.806,1.78c-.424-.834-.977-2.267,.394-2.525,1.515,.066,1.739,1.664,1,2.717-.348-.047-1.046-.14-1.394-.192m81.023,.693c.563,.426,1.125,.867,1.692,1.316-.079,1.303-.288,2.685,.446,3.865,.558-1.125,.814-2.361,1.043-3.584,.57,.253,1.161,.473,1.752,.74-.029,.675-.043,1.354-.043,2.038,.549-.782,1.051-1.592,1.53-2.421,3.431,.538,.484,2.726-.651,4.159-.665-.173-1.315-.347-1.961-.516-.442,1.102-1.46,1.34-2.445,.812-.443-1.242-.982-2.442-1.415-3.678-.17,4.141-.506,8.338-2.751,11.931,1.195-.83,1.804-2.188,2.501-3.415,.581,.37,1.176,.754,1.761,1.153,.187-.104,.559-.305,.745-.404,.479,.267,.966,.529,1.468,.801,.136,.338,.405,1.022,.539,1.358,3.093-3.541,4.49-8.627,4.585-13.321-.5959-2.544-1.758-5.523-4.347-6.571-2.473,.875-4.295,3.062-4.449,5.737m-26.008-12.22c.232-1.4,2.557-.816,2.561,.417-1.241,5.101,.572,10.557,3.482,14.768,2.878,3.345,7.009,5.893,8.4,10.319,.344,1.171,.967,2.727,2.478,2.483,4.545-1.153,7.255-6.23,7.019-10.731-.182-2.745,.2599-5.467,.7859-8.146,.557-2.408,2.82-3.729,4.737-4.97,4.69,.511,7.084,5.588,7.567,9.818-.167,8.225-4.812,16.249-11.797,20.53-2.636,1.949-7.801,2.408-7.387,6.694,.488,5.48-3.905,9.475-7.537,12.858-2.281,2.111-2.704,5.34-4.397,7.821-1.975-1.282-.832-3.611-.093-5.264,1.632-5.078,7.411-7.288,9.145-12.32,.478-2.097-.233-4.356,.528-6.407,.972-1.381,2.302-2.562,3.893-3.176,3.8849-1.499,7.386-3.953,10.2209-7.022-.395-.341-.776-.684-1.153-1.02-.981,.936-2.199,1.565-3.546,1.02-.484,.305-.958,.615-1.423,.929-.5341-.165-1.05-.324-1.571-.478-2.618,2.327-7.015,3.25-9.567,.327,.213-5.218-5.058-8.032-7.8-11.775-3.672-4.68-4.932-10.821-4.546-16.675m-108.037,.112c.015,.286,.038,.858,.047,1.143,.321,.023,.958,.075,1.279,.104,.255-.615,.506-1.224,.766-1.832-.702,.192-1.399,.389-2.092,.585m-1.686-1.326c.618-1.353,2.128-1.518,3.42-1.728,1.981,1.316,2.813,4.164,.511,5.64-2.286,2.533-5.908-1.584-3.931-3.912m-7.638,1.204c.037,.356,.106,1.069,.139,1.424,1.492,.132,1.38-1.306,1.273-2.384-.478,.319-.947,.637-1.412,.96m-1.148,2.512c-2.488-1.458-.452-5.997,2.221-5.074,2.129,.407,2.645,3.045,1.738,4.777-1.203,.665-2.77,1.424-3.959,.297m19.309-2.067c1.339,.614,2.087-.8,2.436-1.864-.836,.595-1.641,1.223-2.436,1.864m-.395-3.33c1.758-.656,4.003-.066,4.407,2-.423,2.449-3.663,4.946-5.513,2.239-.14-1.522,.046-3.068,1.106-4.239m-28.095,.842c.111,1.045,.953,1.612,1.822,2.029,.084-.609,.177-1.218,.27-1.822-.711-.07-1.399-.135-2.092-.207m-.2-2.576c2.12-.051,4.36,1.813,4.109,4.104,.195,1.476-1.599,2.374-2.854,1.99-2.985-.21-4.454-4.922-1.255-6.094m-84.743,2.788c.949-1.972,2.678-3.495,4.979-3.429-1.236,1.274-2.711,2.333-3.617,3.902-.339-.118-1.022-.356-1.362-.473m10.817-6.006c.65-.322,1.162,.441,1.701,.684-2.747,1.724-5.471,3.495-8.418,4.853-.324-.3-.647-.6-.962-.895,2.626-1.432,4.959-3.377,7.679-4.642m6.848-.594c1.232-.857,3.1-2.422,4.37-.782-3.897,1.873-7.327,4.885-11.701,5.564,.246-.983,1.204-1.068,2.026-1.241,1.525-1.55,3.701-2.098,5.305-3.541m1.696,3.158c1.664-2.427,4.342-3.916,6.75-5.496,1.167-.692,2.785,1.138,1.008,1.532-2.816,.872-4.644,4.324-7.758,3.964m178.094-4.235c.986-.637,1.971-1.275,2.957-1.926,.427,.581,.851,1.162,1.278,1.752,1.632-1.311,2.919,1.494,4.663,1.658-1.307,1.762-5.016,1.162-4.691-1.451-1.171,1.325-3.309,1.929-4.207-.033m-164.028-2.277c.479-.932,1.408-.154,2.125,.01-2.152,2.997-5.216,5.362-8.74,6.454-.687,.226-1.207-.501-1.775-.725,3.319-.999,6.197-3.055,8.39-5.739m6.424-.529c.764-1.003,2.064-3.382,3.227-1.471-2.422,3.199-5.248,6.688-9.278,7.734,1.413-2.562,4.495-3.743,6.051-6.263m160.407-3.27c1.808-.07,3.472,.829,4.756,2.056v1.354c-.734,.689-1.534,1.298-2.343,1.888-1.441-1.381-3.351-3.059-2.413-5.298m-153.313-1.784c.257-1.771,3.403-1.227,2.66,.665-2.129,2.047-3.381,4.829-5.579,6.829-.376-.009-1.134-.033-1.511-.047,1.799-2.267,3.737-4.548,4.43-7.447m164.47-1.995c.627,.093,1.279,.211,1.919,.322,.721-.135,1.451-.219,2.195-.253,.149,.647,.306,1.298,.474,1.949-.762,.993-2.009,2.59-3.393,1.719-1.005-.904-1.479-2.412-1.195-3.737m-17.706-3.771c1.757,.271,4.258,1.742,3.36,3.86-2.691,1.868-4.263-1.561-3.36-3.86m-148.023-1.733c-.074-1.443,.149-3.213,1.989-2.937,.066,.969,.14,1.939,.219,2.908,.957-.089,2.129-.398,2.524,.797-1.627,.997-3.444,.548-4.732-.768m-6.76-3.486c1.693,1.148,3.692,1.486,5.366,.052,.724,.08,1.538,.132,1.574,1.078-1.44,2.491-6.758,2.075-6.94-1.13m-13.767,3.078c1.008-1.203,1.668-3.26,3.597-2.988,.102,.28,.302,.838,.4,1.115-6.392,12.084-21.361,13.771-30.374,23.031-3.932,4.019-8.52,7.537-11.37,12.493-4.676,8.234-8.335,17.213-9.315,26.702-.307,6.414,1.649,12.625,3.262,18.751,.242,.684-.26,1.288-.52,1.878-3.779-.796-5.759-4.529-7.996-7.329-4.997-6.329-4.481-15.116-2.346-22.461,2.695-6.267,7.711-11.363,9.585-18.006,1.287-5.236-4.319-10.379-9.372-8.904-5.239,1.223-8.925,5.664-12.533,9.373-3.709,3.644-5.903,8.45-7.828,13.208-3.282,11.903,.501,24.999,7.693,34.7,2.604,3.556,6.405,6.352,10.687,7.415,2.91,.67,6.597-.557,8.991,1.396-1.391,1.677-3.431-.183-5.184,.16-5.206,.492-9.789-2.548-13.735-5.575-9.307-9.963-13.273-24.633-10.609-38.02,2.781-8.281,7.991-15.645,14.825-21.036,3.16-3.05,7.902-5.312,12.299-3.921,3.594,1.522,7.225,4.643,7.318,8.867-.596,10.507-11.984,16.905-11.493,27.674-1.607,6.974,2.325,13.832,7.09,18.614-1.919-7.302-3.673-15.185-1.269-22.596,.516-2.525,.949-5.082,1.859-7.508,2.831-6.582,5.309-13.485,10.064-18.957,5.457-5.283,10.612-11.078,17.289-14.881,6.646-3.823,14.386-6.666,18.985-13.195m19.653-7.031c.381-.206,.777-.403,1.171-.6,1.307,1.392,4.835,1.017,4.515,3.369-1.112,1.1-2.902,1.503-4.441,1.405-1.333-.951-1.013-2.755-1.245-4.174m13.327-.965c-2.469-.651-1.519-5.644,.688-2.745,.884-.074,1.761-.141,2.658-.196,.735,2.169-1.812,2.665-3.346,2.941m-17.12-7.124c.617,.173,1.236,.352,1.863,.53,.293,2.032-1.663,3.232-3.225,3.99-1.934,.426-3.092-1.963-3.05-3.606,.368,.019,1.102,.055,1.469,.074,.442,.497,.888,1.002,1.344,1.504,.535-.829,1.064-1.662,1.599-2.492m7.135-.421c.353-.984,.642-2.469,1.994-2.38,1.586,1.166-.441,3.648-1.994,2.38m140.214-4.198c1.296,.324,2.212,1.275,2.482,2.609,1.171,3.457,3.9,7.588,8.069,6.913,6.708-.857,13.43,.357,19.562,3.153,2.84-3.199,5.996-6.14,9.86-8.042,2.7599,1.359,2.7469,5.105,2.9,7.808-.587,6.361,.678,13.542-3.328,19.045-1.172,2.137-3.315,3.392-4.933,5.134,.419,.267,1.251,.806,1.664,1.073-.957,.038-1.901-.056-2.835-.225-.819,.576-1.511,1.293-2.092,2.103,1.153,.394,3.236-.44,3.58,1.153-3.603,.139-7.429-.488-10.548,1.779-8.563,.173-17.929-1.986-24.144-8.263-2.553,.577-4.955,1.988-7.619,1.851,1.701-1.935,4.397-2.417,6.536-3.719-2.544-.487-5.244,.127-7.658,.993-.533-.455-.997-.984-1.291-1.612,2.543-.388,5.1-.726,7.582-1.461-3.352-5.283-1.85-11.761-1.502-17.598,.526-2.665,1.414-5.246,1.999-7.897,.609,.004,1.223,.033,1.85,.056,.172,.421,.349,.843,.534,1.265-1.435,3.396-2.356,7.059-2.194,10.773-.525,4.221-.53,8.731,1.577,12.558,1.036,.051,2.063,.215,3.078,.492,.101,.262,.306,.786,.413,1.049-.731,.09-1.446,.179-2.152,.272,.614,.351,1.236,.683,1.873,1.026-.126,.427-.246,.857-.358,1.287,2.71,2.745,6.452,4.071,9.99,5.359,3.894,.824,8.014,2.01,11.946,.702-.288-.622-.581-1.24-.855-1.859,2.073,.497,4.049,1.153,5.82-.684-2.031-.238-5.658,1.359-6.323-1.461,2.683-.069,5.384-.187,8.062,.131,4.345-3.138,8.497-7.55,8.72-13.246-.101-4.928,1.148-10.015-.483-14.806-3.691,1.62-6.718,4.51-8.786,7.958-2.027-.553-4.356-3.546-6.512-1.05,.78-.182,1.523-.477,2.273-.801,.701,.432,1.139,1.078,1.129,1.935-1.283,.449-2.519,1.143-3.138,2.422-.195,.116-.576,.356-.767,.477-.208-.107-.622-.323-.833-.431-.189-.384-.375-.768-.552-1.147-1.153-.005-1.972-.927-2.004-2.056,.539-1.134,1.785-1.635,2.706-2.408-1.529-.716-3.217-1.035-4.825-.403,2.096,1.733-.061,3.438-1.912,3.925,1.079,.151,2.659,.942,2.13,2.291-1.585,.937-3.365,1.587-4.578,3.064-1.122,.473-1.404-1.078-1.832-1.767,.809-.632,1.655-1.218,2.538-1.756-.558-.75-.999-1.574-1.152-2.502,.84-.463,1.701-.912,2.57-1.349-1.645,.365-3.073-.67-2.734-2.411-.603,.008-1.199,.027-1.785,.051-1.278,1.293-3.244,3.26-4.848,1.279-.108-.468-.204-.938-.297-1.402-2.738-1.713-4.189-4.725-5.885-7.362-.721-.01-1.432-.01-2.134-.015,.469-1.161,.595-2.408,.608-3.649,.211-.149,.627-.454,.838-.604m-136.114-4.168c1.618-.502,1.548,2.014,.093,2.168-1.873,.572-3.543,3.382-5.495,2.094,1.812-1.409,3.626-2.81,5.402-4.262m-.827-3.246c.618,.103,1.171,.37,1.631,.828-1.464,.905-2.946,2.305-4.792,2.094,.971-1.058,2.11-1.944,3.161-2.922m87.592,81.909l-.024,.422c1.303,.005,2.64,.113,3.91-.281-1.292-.16-2.595-.146-3.886-.141m-7.619,.281c1.478,.108,2.974,.156,4.462-.018-1.463-.333-3.011-.384-4.462,.018m-10.218-.097c1.734,.219,3.505,.294,5.244,0-1.744-.178-3.505-.141-5.244,0m-7.953-.577c.641,.492,1.994,.572,2.812,.225-.422-.848-2.04-.539-2.812-.225m-6.057-.023c1.013,1.635,2.147-1.111,0,0m-45.834-1.771c-.671,1.433,1.538-.051,0,0m65.348-1.485c.334-.103,1.004-.309,1.339-.412-.139-.68-.279-1.358-.395-2.028-.312,.815-.641,1.621-.944,2.44m11.487-6.173c-1.864,1.522,1.403,1.269,0,0m-59.493-2.018c-.088,.636-.167,1.282-.264,1.924,.247-.01,.729-.033,.972-.046,.204,.178,.619,.529,.827,.702,.19,2.627,.632,5.27,1.627,7.724-.706-.019-1.394-.024-2.087-.024-.279-1.4-.651-2.782-1.116-4.126,.107,1.288,.339,2.572,.776,3.799-.116,.187-.353,.571-.469,.758,2.296-.44,4.913,.398,7.372,.061,.121,.239,.368,.712,.488,.951-3.11,.042-6.205-.333-9.31-.37l.022-.655c.206,.041,.614,.13,.819,.173-.446-.595-.883-1.2-1.213-1.86,.107,.909,.203,1.826,.297,2.745,5.686,.22,11.399,.767,17.079,.294-2.372-.206-4.746-.214-7.117-.209-.241-.343-.474-.68-.701-1.013,1.137,.225,2.309,.221,3.448-.051,.678,.276,1.376,.519,2.125,.632-.493-.492-1.121-.702-1.762-.857-.07-.257-.213-.768-.284-1.026-2.175-1.475-3.374-3.854-4.695-6.046-2.742,.233-5.104-1.528-6.834-3.48m-35.812-.849c-1.859,3.138-4.461,5.827-7.488,7.832,.222,.075,.665,.224,.887,.3,.153,1.011,.377,2.08-.785,2.524,1.329-.233,2.682-.065,4.008,.169l-.507-1.077c1.222-.314,2.231,.346,3.146,1.059,3.356-.507,6.904,.346,10.138-.671,.21,.09,.624,.258,.833,.347,.145-.038,.432-.112,.577-.149-1.906-2.17-1.669-5.148-2.664-7.693-2.506-1.559-5.248-2.262-8.145-2.641m-36.847-1.494c2.092,4.178,5.72,8.126,10.273,9.471,4.517-.834,9.235-.159,13.684-1.54,.967-.381,2.004-.338,3.027-.254,2.859-1.799,5.634-4.052,7.242-7.091-2.872-.07-5.801,.931-8.58,.042-1.377,.815-2.958,1.129-4.492,.599-1.092,1.743-3.174,1.003-4.472-.046-3.235,.913-6.912,1.241-10.078-.192-2.184,2.145-4.621,.327-6.604-.989m120.995,1.448c.33,.173,.664,.35,1.009,.528,.013-.792,.032-1.578,.06-2.365-.362,.609-.715,1.222-1.069,1.837m-47.507-3.308c.701,2.376,2.171,4.628,4.624,5.416-.451-1.846-1.097-3.636-1.803-5.393-.037,.661-.061,1.326-.069,1.991-.298-.008-.898-.027-1.2-.037-.311-.825-.674-1.654-1.552-1.977m-85.189-.309c1.287,5.841,8.334,4.501,12.361,7.092-1.722-1.639-2.874-3.742-3.543-6.014-2.645-1.2-6.276-4.211-8.818-1.078m191.165-.454c-.233-.103-.692-.309-.925-.408-.469,2.689-1.213,5.317-1.906,7.954,4.482-1.124,5.885-6.488,7.992-10.089-2.116-.684-3.738,1.302-5.161,2.543m-46.703-3.621c-.395,.586-.986,1.42-.651,2.145,.953,.259,1.292-1.794,.651-2.145m16.427-3.592c.033,3.92,1.586,7.588,2.264,11.409,.795,4.478,3.38,8.268,5.983,11.833,4.276,.285,8.596,.538,12.871,.024,4.246-6.976,5.802-15.233,7.304-23.172-9.265,2.051-19.157,2.233-28.422-.094m-80.373-2.183c-1.909,.735-1.802,3.434-.506,4.698,1.659,1.588,3.236,3.27,4.602,5.129,.177-1.546,.213-3.686,2.227-3.705-.587-2.001-1.028-4.042-1.683-6.02-1.511-.392-3.208-1.156-4.64-.102m-69.825,2.44c1.311,3.453,6.029,2.88,9.041,2.769,6.188,.322,12.375-.413,18.576-.488,3.77-.619,9.232,.043,10.971-4.286-1.418-1.217-3.195-1.935-5.04-2.079-3.24-.178-6.679-1.789-9.64,.22-2.524-1.692-5.69-.417-8.499-.614-5.308,.075-11.62,.173-15.409,4.478m150.185-2.665c5.522,2.595,11.765,1.939,17.669,2.005,3.43-.68,7.158-.362,10.339-2-4.18-2.933-9.665-2.675-14.522-2.436-4.64-.427-8.969,1.705-13.486,2.431m-75.284-13.528c.6,4.432,.582,8.975,1.847,13.298,1.849,7.489,3.648,15.326,8.321,21.608,1.853,1.063,3.197,2.707,4.881,3.991-.336-.01-1.001-.029-1.335-.038l.033,.619c.758-.01,1.514-.015,2.286-.015-.041-.234-.116-.703-.157-.931,5.02,.055,10.049,.125,15.061,.44,1.761-3.317,4.36-6.071,6.201-9.346,3.57-5.573,4.318-12.267,5.244-18.665-.367-.005-1.098-.014-1.465-.019-2.097-1.597-.823-4.978,1.627-5.269,.06-1.851,.306-3.691,.744-5.485-6.286,2.993-13.517,3.526-20.38,2.988-7.642-.881-15.562-.675-22.908-3.176m18.191-3.293c-5.044,.661-10.213,.735-15.108,2.249,1.44,.369,2.905,.712,4.407,.716,11.083,.932,22.717,3.111,33.463-.89-7.33-2.454-15.144-2.295-22.762-2.075m27.115-23.597c-.488,.266-.707,1.067-.331,1.517,.767,.332,1.065-1.41,.331-1.517m2.864-20.624c.734-1.083,1.509,.388,2.095,.866-.967,3.902,2.459,8.384-.617,11.798,.013,.179,.045,.53,.06,.708-.353,.445-.698,.9-1.023,1.364,.307-.043,.92-.127,1.221-.17-1.848,1.692-1.104,4.615-2.862,6.235,.13,2.431-.525,4.769-1.757,6.849-1.994,.209-2.009,2.692-2.948,4.065-.451-.244-.896-.482-1.334-.721,.581-1.884,1.687-3.611,1.837-5.621-2.752,2.594-2.981,6.665-5.09,9.687-.438-.295-.865-.591-1.283-.881,.549-.975,1.171-1.94,1.338-3.073-1.297,1.935-2.217,4.089-2.989,6.281-.548-.163-1.083-.322-1.617-.482-.516,.847-.847,2.984-2.167,2.473-1.956-.956,.627-2.595,1.019-3.794-2.139,.656-3.431,2.562-4.157,4.576-.32,.005-.962,.023-1.282,.029-.303,.586-.586,1.18-.884,1.765-.734-.074-1.464-.131-2.189-.159,2.413,.923,5.132-.033,7.665,.426,5.095,.942,11.208,.605,14.889,4.97-1.482,2.885-1.473,6.206-1.418,9.368-.678,8.702-2.188,17.664-7.335,24.924-1.175,1.634-2.375,3.261-3.393,5.003,4.123,.069,8.25,.023,12.375,.126-.67-.29-1.224-.763-1.864-1.068-.261-2,.877-3.696,1.807-5.345,.46-.089,.925-.173,1.394-.257,.052-.975,.131-1.948,.215-2.918-1.502,2.407-3.203,4.693-4.514,7.214-.441-.478-.87-.951-1.292-1.424,.884-1.392,1.752-2.788,2.607-4.193-1.668-3.489,2.891-6.183,2.888-9.753,.711-.805,1.59-1.367,2.714-1.175,.344,5.125-1.362,10.295-.05,15.368-1.372,.764-1.925,2.258-2.469,3.645,2.868,.449,5.773,.108,8.665,.127-.126-.47-.242-.938-.345-1.401-.468-.361-.91-.731-1.347-1.101-.192,.099-.568,.295-.753,.388-.242-.477-.479-.95-.707-1.424,1.055-2.913,2.804-5.466,4.183-8.211,.289-.103,.866-.304,1.149-.403-.009-.786-.02-1.573-.02-2.351-1.662,2.253-3.275,4.558-4.364,7.158-.995,.416-.986-.932-.912-1.579,.75-2.305,2.065-4.394,3.534-6.295-2.217,1.035-2.245,3.808-4.128,5.123-.228-.238-.673-.711-.901-.945,1.859-3.087,4.016-6,5.457-9.316,.284-.746,1.218-.31,1.803-.357,.93-6.052,3.371-11.803,6.462-17.04,3.89-4.961,7.628-10.427,8.354-16.886,.915-10.745-1.112-21.463-4.063-31.749,.999,.037,2.546,.028,2.714,1.359,1.74,7.982,4.002,15.935,3.89,24.169,1.089,5.405-.66,10.844-2.714,15.786-2.641,5.181-7.192,9.189-9.06,14.806-1.027,3.94-3.482,7.527-3.389,11.729-.372,3.255-.298,6.534-.632,9.795-.395,2.814,.86,5.816-.772,8.407-.846,.665-1.246-.243-1.748-.797,.01,.3,.028,.891,.037,1.191,2.05-.183,4.109-.178,6.164-.245,.094,.099,.28,.286,.373,.384,5.09-1.119,10.757-.139,16.066-.43-4.236-5.232-4.989-12.099-6.579-18.418-.484-2.974-1.023-5.944-1.283-8.946,5.629-.74,11.087-3.04,16.837-2.515,4.189-.46,8.381,.186,12.403,1.386,1.468,.478,3.206,1.203,3.384,2.984,1.497-3.387,3.23-6.821,6.056-9.285,.698-.893,2.827-.36,2.339,.942-3.881,3.167-6.132,8.145-7.047,13.012-.684,.478-1.59,.835-1.715,1.791,2.097-1.575,5.336-2.259,7.344-.16,.368,1.555-.275,3.03-.934,4.398,3.848-1.939,5.043-6.548,4.964-10.563,.219-1.423,1.869-.53,2.515,.08-.311,3.256-.614,6.754-2.664,9.439-1.511,2.908-6.043,3.165-6.02,7.035,4.43,3.526,11.487,1.002,13.881-3.837,2.59-5.246,3.138-11.161,4.254-16.833,.241-.347,.51-.679,.805-.994,.631,.473,1.273,.942,1.919,1.42-2.255,5.597-2.195,11.92-4.602,17.466-2.817,6.006-10.516,8.244-16.443,5.977-1.52-.506-1.942-2.118-2.245-3.508-1.375,1.883-3.615,3.035-5.936,3.054-.753,2.07-1.269,4.262-2.491,6.121,2.625-.224,5.267-.036,7.897-.192-.612-1.541-1.584-2.88-2.663-4.116,.238-.254,.703-.754,.939-1.003,.548,.174,1.101,.342,1.668,.525,.801,1.484,1.615,2.974,2.655,4.313,5.062,.441,10.138,.394,15.219,.319,.311,.75,.73,2.464-.571,2.385-11.171-.005-22.346-.385-33.503,.346-15.484-.997-30.999,.117-46.489-.375-4.236-.365-8.474-.341-12.713-.589-.043,.27-.126,.814-.168,1.086-13.941,.365-27.988,.97-41.859-.989-7.323-.425-14.612-1.306-21.952-1.33-7.743,.576-15.512-.759-23.251,.024-5.555,.801-11.176,.155-16.749,.631-4.37,.389-8.595-.927-12.932-.978-1.297-.838-.856-2.586,.841-2.15-.167-.37-.329-.74-.483-1.105,4.039,.346,8.447-.497,12.235,1.035-3.755-.089-7.648-.867-11.333,.093,5.029,1.921,10.594,1.481,15.907,1.429-.112-.497-.224-.989-.326-1.48,.117-.211,.34-.633,.455-.843-1.389-1.316-2.816-2.581-4.248-3.846-3.909-.679-7.796-1.564-11.589-2.721-2.775-1.495-5.754-5.321-3.281-8.338,2.994-1.218,6.493-.45,9.269,1.049-.427-1.129-.642-2.318-.549-3.527,.818,.066,1.623,.258,2.4,.553,.184,1.607,.599,3.171,1.026,4.726,.581-.098,1.172-.201,1.767-.3,.989,.684,1.943,1.434,2.858,2.226,.61-.478,1.21-.975,1.796-1.491,.524-.004,1.054-.004,1.589,0,1.595,2.619,4.708,.422,7.061,1.35,.669-.712,1.426-1.35,2.352-1.715,.785,.633,1.599,1.242,2.431,1.827,.623-.918,1.413-1.77,2.641-1.508,.334,.36,.674,.721,1.022,1.087,1.297-1.855,3.287-1.382,4.871-.225,.415-.516,.819-1.03,1.237-1.546,.832,.221,1.632,.576,2.366,1.044,.325-.285,.656-.571,.996-.857,.72,.07,1.445,.151,2.175,.259,2.18-1.092,2.394-3.678,2.858-5.805-2.059,1.078-4.337,1.504-6.629,1.663-9.265,.553-18.533,1.045-27.797,.881-2.772-.271-6.071-2.146-6.099-5.27,1.014-2.673,4.086-3.381,6.448-4.402,2.946-1.33,6.238-1.059,9.384-1.134,5.894,.056,11.813-1.317,17.664-.014,3.428-.019,7.053,1.04,9.336,3.766-.126,.66-.243,1.33-.355,2,.279,.412,.569,.824,.861,1.241-.637,2.637-.801,5.439-2.189,7.841,3.258,1.111,6.954,1.705,9.445,4.31,1.213,1.493,.786,3.606,1.088,5.4,.865-1.349,2.371-1.391,3.207,.019-.483,.815-.952,1.635-1.422,2.454,.762,.019,1.538,.005,2.315,.048,.009-.825,.019-1.645,.047-2.459,.743,.041,1.505,.098,2.259,.172,2.677-4.234,.26-9.775-2.905-13.054-4.561-2.815-10.659-4.961-12.148-10.773,.252-6.488,4.751-12.056,4.886-18.558,.762,.187,1.534,.369,2.311,.543-.224,6.31-4.495,11.851-4.268,18.239,1.065,3.607,4.835,5.012,7.633,6.975,6.889,3.063,11.25,13.416,5.504,19.486,1.576,.767,3.393-.01,4.931,.932,2.061-.084,4.208-.515,6.198,.258,.148-.45,.306-.896,.464-1.335,.33,.028,.982,.079,1.307,.107,.302-3.181,1.287-6.257,1.635-9.47-.032-1.318,1.298-.492,2.018-.413-.901-5.139-7.302-6.937-7.623-12.268,.116-3.976,5.244-5.058,8.289-4.291-.917-3.797-.721-7.761-1.4-11.593-.33-.767,.702-.927,1.134-1.249,6.713-3.191,14.565-2.985,21.857-3.888,1.413-4.53,6.379-6.039,9.776-8.685,9.362-5.47,15.36-15.711,16.493-26.47,.674-2.267,.266-4.726,1.145-6.931m6.595-5.603c1.348-.96,2.803-1.747,4.25-2.558,1.125,1.406,3.834,.708,3.945,2.882-1.91,.234-3.915-.404-5.695,.547-.989,.562-1.998,.057-2.5-.871m-105.484,2.155c-3.273,7.429-4.826,16.066-2.381,23.991,1.177,6.656,7.22,11.125,13.315,12.928,5.898,2.511,12.704,4.483,18.955,2.034-.989-.67-2.073-1.307-2.626-2.418,2.078-.529,3.594,2.652,5.388,.637-1.906-.505-4.444-.829-5.216-2.974,2.278,.244,4.384,1.288,6.596,1.864,3.57-2.843,6.885-6.407,8.187-10.909,1.965-6.028,2.268-12.431,3.449-18.633-4.407,.806-8.246,3.25-12.04,5.509-6.462-3.434-13.89-4.174-20.997-5.294-2.101-.468-4.417,.436-6.373-.617-1.023-3.561-2.873-6.802-4.109-10.277-1.075,1.175-2.074,2.491-2.148,4.159m1.943-7.438c.618-.043,1.241-.08,1.869-.117,.223,.173,.669,.519,.891,.692-.571,3.823,1.894,7.055,3.014,10.526,8.171,1.508,16.664,2.374,24.603,5.199,1.754,.839,3.227-.955,4.816-1.462,2.938-1.742,6.234-2.548,9.424-3.671,.967,.402,2.174,.912,1.706,2.21-2.208,8.778-1.511,18.591-6.927,26.283-1.279,1.47-2.487,3.002-3.854,4.394,.127,.406,.251,.819,.385,1.235-.515-.111-1.017-.224-1.519-.337-.735,.684-1.478,1.359-2.236,2.019,.949,.693,2.288,1.185,2.464,2.525-1.39-.596-2.724-1.307-4.068-1.986-6.567,4.478-15.256,2.028-22.052-.745-7.322-2.384-14.755-8.197-15.415-16.436-2.036-7.888-.2-16.16,2.311-23.72,.804-2.699,3.584-4.052,4.588-6.609m104.475-1.143c1.478-.511,3.152-.811,4.687-.375,1.594,1.438-.698,3.803-2.233,4.089-1.082-1.035-1.775-2.403-2.454-3.714m-5.387-6.6c.627,.351,1.222,.782,1.71,1.335,.419-1.293,2.724,.131,1.994,1.597-1.357,1.152-3.351,2.843-4.866,.932,.283-1.316,.594-2.637,1.162-3.864m16.363-.118c1.013-.065,1.654,.778,1.933,1.673,.34-.084,.684-.169,1.032-.253,.299,.576,.633,1.134,.943,1.714-1.723,.984-4.094,3.115-5.814,.951,.543-1.4,1.115-2.8,1.906-4.085m8.302,6.02c-2.032,1.705,2.288,.028,0,0m-32.995-29.205c-2.798,9.433-2.664,19.818,1.008,28.999,.703,2.702,4.068,1.049,5.903,2.402-.017,.403-.055,1.209-.074,1.612-1.394-.281-2.798-.535-4.216-.6,.995,.735,2.106,1.377,2.841,2.417,1.78,2.488,5.038,2.974,7.851,3.321,5.489,1.045,11.32-.29,15.86-3.569-.729-1.232-1.181-2.586-1.501-3.972,2.185-1.597,4.701-2.661,7.15-3.775,2.77-5.462,1.794-11.739,2.147-17.617-1.436-.96-2.723-2.117-3.844-3.424,.097-.801,.154-1.602,.177-2.408-2.594,.759-3.683,3.406-5.397,5.237-6.759-3.668-14.503,.258-21.607-.253-.428,.351-.827,.74-1.246,1.092-.432-.202-.86-.408-1.282-.61-1.275-2.946-2.031-6.126-3.77-8.852m36.835-4.881c1.041-.853,2.213,.211,2.583,1.227-.469,.543-.91,1.092-1.356,1.639,1.682,1.166,1.199,3.265,1.148,5.008,.399,.557,.777,1.147,1.166,1.728-1.607,1.864-1.046,4.305-1.031,6.548-.391,4.633,.455,9.444-1.195,13.912,3.1-1.396,6.373-2.866,9.854-2.632-3.267,2.426-8.395,2.281-11.151,5.775,2.138-.525,4.267-1.218,6.499-1.19-1.181,2.005-4.04,1.406-5.672,2.946,2.157,.197,4.435-.726,6.466,.385-3.313,1.625-8.158,.192-10.552,3.649-6.619,6.96-17.138,7.887-25.933,5.274,2.43,2.403,3.575,6.225,2.481,9.522-1.156-.585-.395-1.911-.52-2.89-.414-2.229-1.274-4.431-2.812-6.122,.074-.21,.223-.632,.292-.843-1.138-.628-2.24-1.33-3.263-2.122-3.63,1.293-7.609,2.235-10.659,4.689-.493-.079-.976-.159-1.454-.234,1.463-3.808,6.712-3.658,9.711-5.874-3.548-.15-6.412,2.342-9.87,2.566-.794-.313-.976-1.166-1.153-1.896,3.412-1.181,6.992-1.691,10.506-2.469-.344-.426-.651-.871-1.023-1.255-3.226-.426-6.503-.121-9.747-.21-.991-.048-1.813-1.448-.907-2.108,3.207,.571,6.475,.458,9.725,.449-2.404-5.78-3.427-12.028-3.198-18.281-.559-5.121,2.128-9.893,1.785-14.994,1.292-.37,2.798-1.963,4.085-.839,2.719,3.059,5.221,6.347,8.205,9.158,2.208,.754,4.565-.132,6.782-.511,3.254-.229,6.574-.29,9.762,.53,1.135,.542,1.418-.877,1.474-1.705,3.231-2.699,5.327-6.661,8.972-8.83"/></g></svg>